<svg width="24" height="24" viewBox="0 0 24 24" fill="none" xmlns="http://www.w3.org/2000/svg">
  <path d="M18.5 10C18.5 11.7566 17.4683 13.6419 16.0394 15.5222C15.3328 16.4521 14.5465 17.3591 13.7748 18.227C13.5853 18.4401 13.3962 18.6514 13.2094 18.8602C12.7879 19.3311 12.3777 19.7894 12 20.2274C11.6223 19.7894 11.2121 19.3311 10.7906 18.8602C10.6038 18.6514 10.4147 18.4401 10.2252 18.227C9.45351 17.3591 8.6672 16.4521 7.9606 15.5222C6.53174 13.6419 5.5 11.7566 5.5 10C5.5 6.41015 8.41015 3.5 12 3.5C15.5899 3.5 18.5 6.41015 18.5 10Z" stroke="#282828" fill="#fff"/>
  <path d="M12 8.5C12.8284 8.5 13.5 9.17157 13.5 10C13.5 10.8284 12.8284 11.5 12 11.5C11.1716 11.5 10.5 10.8284 10.5 10C10.5 9.17157 11.1716 8.5 12 8.5Z" stroke="#282828"/>
</svg>
